<svg width="38" height="38" viewBox="0 0 38 38" fill="none" xmlns="http://www.w3.org/2000/svg">
<g id="Frame">
<path id="Vector" d="M15.0416 3.16675C15.5614 3.16675 16.0761 3.26914 16.5564 3.46806C17.0366 3.66699 17.473 3.95855 17.8406 4.32612C18.2081 4.69368 18.4997 5.13005 18.6986 5.61029C18.8975 6.09054 18.9999 6.60527 18.9999 7.12508V30.8751C18.9978 31.8629 18.6264 32.8142 17.9587 33.5421C17.291 34.2701 16.3753 34.7221 15.3914 34.8094C14.4074 34.8967 13.4264 34.6129 12.641 34.0139C11.8556 33.4148 11.3226 32.5437 11.1466 31.5718C10.4834 31.7194 9.79327 31.6938 9.14278 31.4975C8.49229 31.3012 7.90328 30.9407 7.43246 30.4508C6.96163 29.9609 6.62485 29.358 6.45452 28.7003C6.28419 28.0425 6.28605 27.3519 6.45993 26.6951C5.54927 26.4026 4.74813 25.8419 4.16137 25.0866C3.57461 24.3312 3.22957 23.4163 3.17139 22.4616C3.11322 21.5068 3.34463 20.5568 3.83534 19.7358C4.32604 18.9148 5.05318 18.261 5.92159 17.8601C5.40527 17.35 5.03912 16.7078 4.8632 16.0036C4.68727 15.2995 4.70832 14.5605 4.92406 13.8675C5.1398 13.1745 5.54192 12.5542 6.08646 12.0744C6.63099 11.5945 7.29697 11.2736 8.01159 11.1468C7.89631 10.6284 7.8865 10.0921 7.98275 9.56991C8.079 9.04769 8.27934 8.55017 8.57185 8.10697C8.86436 7.66378 9.24306 7.28397 9.68539 6.99016C10.1277 6.69634 10.6247 6.49454 11.1466 6.39675C11.3166 5.48834 11.7992 4.66807 12.5106 4.07812C13.222 3.48818 14.1174 3.16576 15.0416 3.16675Z" fill="#D8D8D8" stroke="white" stroke-width="2.66667" stroke-linecap="round" stroke-linejoin="round"/>
<path id="Vector_2" d="M22.9583 3.16675C21.9085 3.16675 20.9017 3.58379 20.1594 4.32612C19.417 5.06845 19 6.07527 19 7.12508V30.8751C19.0021 31.8629 19.3735 32.8142 20.0412 33.5421C20.7089 34.2701 21.6246 34.7221 22.6086 34.8094C23.5925 34.8967 24.5735 34.6129 25.3589 34.0139C26.1443 33.4148 26.6774 32.5437 26.8533 31.5718C27.5166 31.7194 28.2067 31.6938 28.8571 31.4975C29.5076 31.3012 30.0966 30.9407 30.5675 30.4508C31.0383 29.9609 31.3751 29.358 31.5454 28.7003C31.7157 28.0425 31.7139 27.3519 31.54 26.6951C32.4507 26.4026 33.2518 25.8419 33.8386 25.0866C34.4253 24.3312 34.7704 23.4163 34.8285 22.4616C34.8867 21.5068 34.6553 20.5568 34.1646 19.7358C33.6739 18.9148 32.9467 18.261 32.0783 17.8601C32.5947 17.35 32.9608 16.7078 33.1367 16.0036C33.3127 15.2995 33.2916 14.5605 33.0759 13.8675C32.8601 13.1745 32.458 12.5542 31.9135 12.0744C31.3689 11.5945 30.703 11.2736 29.9883 11.1468C30.1036 10.6284 30.1134 10.0921 30.0172 9.56991C29.9209 9.04769 29.7206 8.55017 29.4281 8.10697C29.1356 7.66378 28.7569 7.28397 28.3145 6.99016C27.8722 6.69634 27.3753 6.49454 26.8533 6.39675C26.6833 5.48834 26.2007 4.66807 25.4893 4.07812C24.7779 3.48818 23.8825 3.16576 22.9583 3.16675Z" fill="#D8D8D8" stroke="white" stroke-width="2.66667" stroke-linecap="round" stroke-linejoin="round"/>
</g>
</svg>
